<svg width="199" height="199" xmlns="http://www.w3.org/2000/svg" xmlns:xlink="http://www.w3.org/1999/xlink"><defs><path id="a" d="M198.946 0H0v198.947h198.946z"/></defs><g fill="none" fill-rule="evenodd"><mask id="b" fill="#fff"><use xlink:href="#a"/></mask><path d="M141.958 113.985s-7.251 31.083-42.484 31.083c-35.23 0-42.484-31.083-42.484-31.083H39.376s10.878 47.666 60.098 47.666c48.701 0 60.1-47.666 60.1-47.666h-17.616zm-42.484 68.39c-45.78 0-82.896-37.116-82.896-82.897 0-45.782 37.115-82.9 82.895-82.9 45.784 0 82.9 37.116 82.9 82.898 0 45.78-37.113 82.899-82.9 82.899zM99.474 0C44.535 0 0 44.537 0 99.474c0 54.935 44.536 99.473 99.474 99.473 54.934 0 99.472-44.538 99.472-99.473C198.946 44.537 154.41 0 99.474 0zm30.05 84.969c7.44 0 13.471-6.03 13.471-13.471s-6.03-13.471-13.47-13.471-13.472 6.03-13.472 13.47c0 7.442 6.032 13.472 13.471 13.472zm-60.1 0c7.441 0 13.471-6.03 13.471-13.471s-6.03-13.471-13.47-13.471-13.471 6.03-13.471 13.47c0 7.442 6.033 13.472 13.47 13.472z" fill="#FFF" mask="url(#b)"/></g></svg>